<svg id="visual" viewBox="0 0 900 600" width="900" height="600" xmlns="http://www.w3.org/2000/svg" xmlns:xlink="http://www.w3.org/1999/xlink" version="1.1"><g fill="#F2994A"><circle r="69" cx="135" cy="292"></circle><circle r="18" cx="858" cy="156"></circle><circle r="55" cx="580" cy="79"></circle><circle r="38" cx="470" cy="394"></circle><circle r="40" cx="393" cy="36"></circle><circle r="39" cx="361" cy="173"></circle><circle r="52" cx="72" cy="28"></circle><circle r="57" cx="230" cy="415"></circle><circle r="42" cx="616" cy="342"></circle><circle r="54" cx="779" cy="375"></circle><circle r="53" cx="489" cy="589"></circle><circle r="21" cx="614" cy="486"></circle><circle r="23" cx="515" cy="220"></circle><circle r="58" cx="206" cy="564"></circle><circle r="65" cx="209" cy="67"></circle><circle r="45" cx="62" cy="412"></circle><circle r="65" cx="749" cy="569"></circle><circle r="53" cx="892" cy="509"></circle><circle r="67" cx="815" cy="2"></circle><circle r="38" cx="66" cy="563"></circle><circle r="30" cx="328" cy="307"></circle><circle r="66" cx="340" cy="530"></circle><circle r="29" cx="686" cy="214"></circle><circle r="59" cx="57" cy="169"></circle><circle r="25" cx="898" cy="292"></circle></g></svg>