<!DOCTYPE svg PUBLIC "-//W3C//DTD SVG 1.1//EN" "http://www.w3.org/Graphics/SVG/1.1/DTD/svg11.dtd">
<!-- Uploaded to: SVG Repo, www.svgrepo.com, Transformed by: SVG Repo Mixer Tools -->
<svg width="800px" height="800px" viewBox="0 0 500 500" id="Layer_2" data-name="Layer 2" xmlns="http://www.w3.org/2000/svg" fill="#000000">
<g id="SVGRepo_bgCarrier" stroke-width="0"/>
<g id="SVGRepo_tracerCarrier" stroke-linecap="round" stroke-linejoin="round"/>
<g id="SVGRepo_iconCarrier">
<defs>
<style>.cls-1{fill:#add9a2;}.cls-1,.cls-2,.cls-3,.cls-4,.cls-5{fill-rule:evenodd;}.cls-2{fill:#008200;}.cls-3{fill:#ffd1d1;}.cls-4{fill:#56CCF2;}.cls-5{fill:#e0f3ff;}.cls-6{fill:none;stroke:#008200;stroke-linecap:round;stroke-linejoin:round;stroke-width:21.11px;}</style>
</defs>
<title>icon</title>
<path class="cls-1" d="M107.29,126.59C36.83,214.39,49,406.12,197.46,432.84c121.71,21.9,218.83-13.71,234.87-146.67C462.05,39.9,209.81,7.87,107.29,126.59Z"/>
<path class="cls-2" d="M227.72,365.43A7.25,7.25,0,0,1,218,354.7c9.58-8.7,20.72-13.32,32.19-13.32,11,0,22.17,4.26,32.28,13.27a7.26,7.26,0,0,1-9.65,10.84c-7.3-6.51-15.09-9.59-22.63-9.59C242.33,355.9,234.57,359.21,227.72,365.43Z"/>
<path class="cls-3" d="M136.58,315.74c14.73,2.75,23.83,12.35,25.8,20.25,5.39,21.63-66.73,13.05-71.25,9.7C70.59,330.49,110.69,310.9,136.58,315.74Z"/>
<path class="cls-2" d="M111.26,314.76a3.92,3.92,0,0,1,7.48,2.33l-7.37,23.43a3.92,3.92,0,1,1-7.48-2.33Z"/>
<path class="cls-2" d="M135.25,313.24a3.91,3.91,0,1,1,7.14,3.19L130.23,343.5a3.91,3.91,0,1,1-7.14-3.19Z"/>
<path class="cls-3" d="M390.18,315.74C404.91,318.49,414,328.09,416,336c5.39,21.63-66.73,13.05-71.25,9.7C324.19,330.49,364.29,310.9,390.18,315.74Z"/>
<path class="cls-2" d="M364.86,314.76a3.92,3.92,0,0,1,7.48,2.33L365,340.52a3.92,3.92,0,1,1-7.48-2.33Z"/>
<path class="cls-2" d="M388.85,313.24a3.91,3.91,0,1,1,7.14,3.19L383.83,343.5a3.91,3.91,0,1,1-7.14-3.19Z"/>
<path class="cls-4" d="M190.63,277c-16.53,15.23-9.31,28.67-1.91,42.45,4.91,9.13,9.89,18.4,8.51,28.57-1.51,11.08-6.32,18.25-10.66,24.73-4.06,6.06-7.7,11.5-7.65,18.93.06,8.38,3.61,14.1,6.89,19.4,3,4.78,5.73,9.25,5.75,15.08a23.17,23.17,0,0,1-1.24,7.83,14.27,14.27,0,0,1-3.69,5.76c-23.79-.52-37.31-8.63-56.68-13.59,0-5.32-2.65-9.57-5.48-14.13-3.41-5.51-7.09-11.45-7.15-20.34-.06-8,3.73-13.64,8-19.94s8.91-13.31,10.36-24c1.3-9.59-3.54-18.6-8.3-27.48-7.74-14.39-15.29-28.45,2.27-44.63Z"/>
<path class="cls-2" d="M131.77,279c-15,13.8-8.24,26.33-1.35,39.16,5.11,9.51,10.3,19.18,8.8,30.22-1.64,12.06-7.05,19.36-11.91,25.91-7.61,10.25-13.62,18.36,5.95,45.12l-5.84,4.29c-22.72-31.08-15.31-41.07-5.93-53.72,4.33-5.85,9.16-12.35,10.55-22.56,1.19-8.72-3.44-17.34-8-25.83-8.24-15.34-16.29-30.31,2.82-47.92Z"/>
<path class="cls-2" d="M194.13,279c-15,13.8-8.25,26.33-1.36,39.16,5.12,9.51,10.31,19.18,8.8,30.22-1.64,12.06-7,19.36-11.9,25.91-6.51,8.77-11.84,16-1.26,34.23l.91,1.56c7,12,11.07,19-1.31,34.09l-5.61-4.6c9.19-11.22,6-16.62.65-25.85l-.91-1.57c-13-22.39-6.35-31.3,1.71-42.17,4.33-5.85,9.16-12.35,10.55-22.56,1.18-8.72-3.45-17.34-8-25.83-8.24-15.34-16.28-30.31,2.83-47.92Z"/>
<path class="cls-5" d="M175.38,280.28c-13.94,12.85-7.54,24.77-1,37,5.25,9.77,10.58,19.7,9,31.33-1.7,12.52-7.26,20-12.25,26.74-6.11,8.24-11.12,15-1.13,32.24l.91,1.57c7.38,12.65,11.69,20.06-1.48,36.14l-8.43-6.9c8.4-10.25,5.48-15.25.5-23.8L160.6,413c-13.56-23.42-6.63-32.76,1.82-44.16,4.2-5.67,8.88-12,10.21-21.72,1.1-8.13-3.39-16.5-7.81-24.73-8.58-16-16.95-31.55,3.2-50.12Z"/>
<path class="cls-2" d="M119.29,281.32a10.9,10.9,0,0,1,0-21.79h73.55a10.9,10.9,0,1,1,0,21.79Z"/>
<line class="cls-6" x1="306.56" y1="270.43" x2="380.11" y2="270.43"/>
<path class="cls-4" d="M310.88,277c16.52,15.23,9.3,28.67,1.91,42.45-4.91,9.13-9.89,18.4-8.51,28.57,1.51,11.08,6.31,18.25,10.66,24.73,4.05,6.06,7.7,11.5,7.64,18.93-.06,8.38-3.6,14.1-6.88,19.4-3,4.78-5.73,9.25-5.75,15.08a23.17,23.17,0,0,0,1.24,7.83,14.27,14.27,0,0,0,3.69,5.76c23.79-.52,37.31-8.63,56.68-13.59,0-5.32,2.65-9.57,5.48-14.13,3.41-5.51,7.09-11.45,7.15-20.34.06-8-3.73-13.64-7.95-19.94s-8.91-13.31-10.36-24c-1.31-9.59,3.53-18.6,8.3-27.48,7.74-14.39,15.28-28.45-2.27-44.63Z"/>
<path class="cls-2" d="M374.65,273.62c19.1,17.61,11.06,32.58,2.82,47.92-4.56,8.49-9.19,17.11-8,25.83,1.39,10.21,6.21,16.71,10.55,22.56,9.38,12.65,16.79,22.64-5.93,53.72l-5.84-4.29c19.56-26.76,13.56-34.87,5.95-45.12-4.86-6.55-10.27-13.85-11.91-25.91-1.5-11,3.69-20.71,8.8-30.22,6.89-12.83,13.62-25.36-1.35-39.16Z"/>
<path class="cls-2" d="M312.29,273.62c19.11,17.61,11.07,32.58,2.83,47.92-4.56,8.49-9.2,17.11-8,25.83,1.39,10.21,6.22,16.71,10.55,22.56,8.06,10.87,14.67,19.78,1.71,42.17l-.92,1.57c-5.38,9.23-8.53,14.63.66,25.85l-5.61,4.6C301.12,429,305.2,422,312.19,410l.91-1.56c10.58-18.27,5.25-25.46-1.26-34.23-4.86-6.55-10.27-13.85-11.91-25.91-1.5-11,3.69-20.71,8.8-30.22,6.9-12.83,13.62-25.36-1.35-39.16Z"/>
<path class="cls-5" d="M333.49,272.28c20.15,18.57,11.77,34.16,3.2,50.12-4.42,8.23-8.92,16.6-7.81,24.73,1.33,9.74,6,16.05,10.21,21.72,8.45,11.4,15.38,20.74,1.82,44.16l-.91,1.56c-5,8.55-7.9,13.55.49,23.8l-8.42,6.9c-13.18-16.08-8.86-23.49-1.48-36.14l.91-1.57c10-17.24,5-24-1.14-32.24-5-6.73-10.54-14.22-12.25-26.74-1.58-11.63,3.75-21.56,9-31.33,6.56-12.2,13-24.12-1-37Z"/>
<path class="cls-2" d="M382.21,259.53a10.9,10.9,0,1,1,0,21.79H308.66a10.9,10.9,0,0,1,0-21.79Z"/>
<path class="cls-2" d="M94.11,112.34C207.06-18.22,482.08,21,450,286.68,432.61,430.72,324.45,478,191.62,454.1,30.12,425,14.56,211.4,94.11,112.34Zm13.18,14.25C36.83,214.39,49,406.12,197.45,432.84c121.72,21.9,218.84-13.71,234.88-146.67C462.05,39.9,209.81,7.87,107.29,126.59Z"/>
</g>
</svg>