<!DOCTYPE svg PUBLIC "-//W3C//DTD SVG 1.1//EN" "http://www.w3.org/Graphics/SVG/1.1/DTD/svg11.dtd">
<!-- Uploaded to: SVG Repo, www.svgrepo.com, Transformed by: SVG Repo Mixer Tools -->
<svg width="800px" height="800px" viewBox="0 0 500 500" id="Layer_2" data-name="Layer 2" xmlns="http://www.w3.org/2000/svg" fill="#000000">
<g id="SVGRepo_bgCarrier" stroke-width="0"/>
<g id="SVGRepo_tracerCarrier" stroke-linecap="round" stroke-linejoin="round"/>
<g id="SVGRepo_iconCarrier">
<defs>
<style>.cls-1{fill:#008200;}.cls-1,.cls-2,.cls-3{fill-rule:evenodd;}.cls-2{fill:#add9a2;}.cls-3{fill:#ffd1d1;}</style>
</defs>
<title>icon</title>
<path class="cls-1" d="M94.11,112.34C207.06-18.22,482.08,21,450,286.68,432.61,430.72,324.45,478,191.62,454.1,30.12,425,14.56,211.4,94.11,112.34Z"/>
<path class="cls-2" d="M107.3,126.59C36.83,214.39,49,406.12,197.45,432.84c121.72,21.9,218.84-13.71,234.88-146.67C462.05,39.9,209.81,7.87,107.3,126.59Z"/>
<path class="cls-1" d="M401.67,286.78a9.07,9.07,0,0,1,10.43,14.83c-8,5.66-18.35,8.71-29.14,9.35a76.88,76.88,0,0,1-31.45-4.78c-10.25-3.9-19.29-10.14-25.21-18.52a38.44,38.44,0,0,1-7.11-20.18,9.06,9.06,0,1,1,18.09-1.06,20.64,20.64,0,0,0,3.84,10.81c3.71,5.25,9.77,9.3,16.84,12a58.65,58.65,0,0,0,23.94,3.64C389.47,292.42,396.5,290.43,401.67,286.78Z"/>
<path class="cls-1" d="M193,380.18a9.06,9.06,0,0,1-15.68-9.08c7.57-13.09,16.89-15.61,26.12-13.46,7.52,1.75,13.86,6.94,18.79,11.2.06.05.63-.25,1.67-.49a13,13,0,0,0,6.39-3.63,37,37,0,0,1,11.4-8.81,20.71,20.71,0,0,1,12.32-1.8c5.33.88,9.06,4.09,13.11,7.58,4.28,3.69,9.38,8.09,17.51-1.56a15.83,15.83,0,0,1,3.26-3,22.89,22.89,0,0,1,15-3.47,32.12,32.12,0,0,1,17.5,7.83,49.79,49.79,0,0,1,9,10.06,9.06,9.06,0,0,1-15,10.22,31.78,31.78,0,0,0-5.64-6.45,14.28,14.28,0,0,0-7.64-3.64,5.13,5.13,0,0,0-3,.37c-19.76,23.23-32.35,12.39-42.9,3.29a40.33,40.33,0,0,0-4.18-3.4,3.28,3.28,0,0,0-1.82.39,19.66,19.66,0,0,0-5.66,4.62,32.06,32.06,0,0,1-15.6,9c-6.34,1.48-12.84.66-17.64-3.48-3.36-2.91-7.58-6.42-11-7.23C197.53,374.89,195.42,375.93,193,380.18Z"/>
<path class="cls-1" d="M93.68,301.61a9.06,9.06,0,0,1,10.42-14.83c5.18,3.65,12.21,5.64,19.78,6.09a58.7,58.7,0,0,0,23.94-3.64c7.07-2.7,13.13-6.75,16.83-12a20.56,20.56,0,0,0,3.85-10.81,9.06,9.06,0,1,1,18.09,1.06,38.44,38.44,0,0,1-7.11,20.18c-5.92,8.38-15,14.62-25.21,18.52A76.93,76.93,0,0,1,122.81,311C112,310.32,101.7,307.27,93.68,301.61Z"/>
<path class="cls-3" d="M158.25,315.11c16.53-1.56,29.14,5.88,33.66,13.7,12.35,21.39-67.1,34.27-72.93,32.09C92.45,351,129.18,317.86,158.25,315.11Z"/>
<path class="cls-1" d="M131,321.8a4.34,4.34,0,1,1,8.68.2l-.7,27.21a4.34,4.34,0,1,1-8.68-.2Z"/>
<path class="cls-1" d="M156.06,312.85a4.33,4.33,0,0,1,8.58,1.22L160,346.63a4.34,4.34,0,0,1-8.59-1.22Z"/>
<path class="cls-3" d="M367.83,321.16c15.1,6.91,22.3,19.66,22.3,28.69,0,24.7-75.24-3.86-79.2-8.67C292.92,319.32,341.28,309,367.83,321.16Z"/>
<path class="cls-1" d="M340.86,313.32a4.34,4.34,0,1,1,7.42,4.51L334.07,341a4.34,4.34,0,1,1-7.42-4.51Z"/>
<path class="cls-1" d="M367.07,318.11a4.33,4.33,0,1,1,6.82,5.35L353.55,349.3a4.33,4.33,0,1,1-6.82-5.34Z"/>
<path class="cls-1" d="M332.92,216.66a5.42,5.42,0,0,1,7.24-8.08L367.4,233a5.42,5.42,0,1,1-7.23,8.09Z"/>
<path class="cls-1" d="M162.22,208.58a5.42,5.42,0,1,1,7.23,8.08l-27.24,24.39A5.42,5.42,0,0,1,135,233Z"/>
</g>
</svg>