<?xml version="1.0" encoding="iso-8859-1"?>
<!-- Uploaded to: SVG Repo, www.svgrepo.com, Generator: SVG Repo Mixer Tools -->
<svg fill="#000000" height="800px" width="800px" version="1.1" id="Layer_1" xmlns="http://www.w3.org/2000/svg" xmlns:xlink="http://www.w3.org/1999/xlink" 
	 viewBox="0 0 512 512" xml:space="preserve">
<g>
	<g>
		<path d="M478.701,239.302v-50.35c0-24.837-20.21-45.044-45.055-45.044c-8.315,0-16.106,2.273-22.799,6.215v-5.591
			c0-24.85-20.214-45.066-45.06-45.066s-45.06,20.216-45.06,45.066v94.778H191.27v-94.778c0-24.85-20.215-45.066-45.061-45.066
			s-45.06,20.216-45.06,45.066v5.591c-6.694-3.942-14.484-6.215-22.799-6.215c-24.843,0-45.055,20.206-45.055,45.044v50.358H0
			v33.391h33.294v50.337c0,24.85,20.21,45.066,45.055,45.066c8.315,0,16.106-2.273,22.799-6.217v5.583
			c0,24.85,20.214,45.066,45.06,45.066s45.061-20.216,45.061-45.066v-94.768h129.457v94.768c0,24.85,20.214,45.066,45.06,45.066
			s45.06-20.216,45.06-45.066v-5.583c6.694,3.945,14.484,6.217,22.799,6.217c24.843,0,45.055-20.216,45.055-45.066v-50.345
			l33.29,0.008l0.01-33.391L478.701,239.302z"/>
	</g>
</g>
</svg>