<svg id="visual" viewBox="0 0 900 600" width="900" height="600" xmlns="http://www.w3.org/2000/svg" xmlns:xlink="http://www.w3.org/1999/xlink" version="1.1"><path d="M0 348L41 348L41 239L82 239L82 306L123 306L123 198L164 198L164 339L205 339L205 357L245 357L245 550L286 550L286 554L327 554L327 483L368 483L368 185L409 185L409 545L450 545L450 424L491 424L491 553L532 553L532 153L573 153L573 373L614 373L614 303L655 303L655 341L695 341L695 187L736 187L736 277L777 277L777 328L818 328L818 163L859 163L859 412L900 412L900 424L900 0L900 0L859 0L859 0L818 0L818 0L777 0L777 0L736 0L736 0L695 0L695 0L655 0L655 0L614 0L614 0L573 0L573 0L532 0L532 0L491 0L491 0L450 0L450 0L409 0L409 0L368 0L368 0L327 0L327 0L286 0L286 0L245 0L245 0L205 0L205 0L164 0L164 0L123 0L123 0L82 0L82 0L41 0L41 0L0 0Z" fill="#339c25"></path><path d="M0 413L41 413L41 143L82 143L82 448L123 448L123 217L164 217L164 385L205 385L205 439L245 439L245 128L286 128L286 417L327 417L327 247L368 247L368 385L409 385L409 335L450 335L450 357L491 357L491 189L532 189L532 327L573 327L573 274L614 274L614 341L655 341L655 347L695 347L695 336L736 336L736 373L777 373L777 158L818 158L818 344L859 344L859 256L900 256L900 183L900 0L900 0L859 0L859 0L818 0L818 0L777 0L777 0L736 0L736 0L695 0L695 0L655 0L655 0L614 0L614 0L573 0L573 0L532 0L532 0L491 0L491 0L450 0L450 0L409 0L409 0L368 0L368 0L327 0L327 0L286 0L286 0L245 0L245 0L205 0L205 0L164 0L164 0L123 0L123 0L82 0L82 0L41 0L41 0L0 0Z" fill="#8cca7c"></path><path d="M0 187L41 187L41 12L82 12L82 68L123 68L123 76L164 76L164 130L205 130L205 46L245 46L245 97L286 97L286 146L327 146L327 229L368 229L368 43L409 43L409 53L450 53L450 292L491 292L491 8L532 8L532 282L573 282L573 189L614 189L614 261L655 261L655 201L695 201L695 63L736 63L736 104L777 104L777 137L818 137L818 121L859 121L859 276L900 276L900 28L900 0L900 0L859 0L859 0L818 0L818 0L777 0L777 0L736 0L736 0L695 0L695 0L655 0L655 0L614 0L614 0L573 0L573 0L532 0L532 0L491 0L491 0L450 0L450 0L409 0L409 0L368 0L368 0L327 0L327 0L286 0L286 0L245 0L245 0L205 0L205 0L164 0L164 0L123 0L123 0L82 0L82 0L41 0L41 0L0 0Z" fill="#d9f7d0"></path></svg>