<svg id="visual" viewBox="0 0 960 540" width="960" height="540" xmlns="http://www.w3.org/2000/svg" xmlns:xlink="http://www.w3.org/1999/xlink" version="1.1"><path d="M0 132L137 139L274 270L411 271L549 165L686 134L823 166L960 234L960 541L823 541L686 541L549 541L411 541L274 541L137 541L0 541Z" fill="#56ccf2"></path><path d="M0 182L137 165L274 348L411 294L549 332L686 294L823 211L960 325L960 541L823 541L686 541L549 541L411 541L274 541L137 541L0 541Z" fill="#83d5f6"></path><path d="M0 255L137 339L274 361L411 269L549 290L686 404L823 296L960 333L960 541L823 541L686 541L549 541L411 541L274 541L137 541L0 541Z" fill="#a6dffa"></path><path d="M0 439L137 371L274 373L411 367L549 392L686 393L823 406L960 455L960 541L823 541L686 541L549 541L411 541L274 541L137 541L0 541Z" fill="#c4e9fd"></path><path d="M0 410L137 472L274 472L411 417L549 442L686 471L823 448L960 404L960 541L823 541L686 541L549 541L411 541L274 541L137 541L0 541Z" fill="#e0f3ff"></path></svg>