<svg id="visual" viewBox="0 0 900 450" width="900" height="450" xmlns="http://www.w3.org/2000/svg" xmlns:xlink="http://www.w3.org/1999/xlink" version="1.1"><path d="M0 248L21.5 249.8C43 251.7 86 255.3 128.8 252.3C171.7 249.3 214.3 239.7 257.2 238C300 236.3 343 242.7 385.8 254.7C428.7 266.7 471.3 284.3 514.2 284.8C557 285.3 600 268.7 642.8 268.7C685.7 268.7 728.3 285.3 771.2 287.5C814 289.7 857 277.3 878.5 271.2L900 265L900 451L878.5 451C857 451 814 451 771.2 451C728.3 451 685.7 451 642.8 451C600 451 557 451 514.2 451C471.3 451 428.7 451 385.8 451C343 451 300 451 257.2 451C214.3 451 171.7 451 128.8 451C86 451 43 451 21.5 451L0 451Z" fill="#008200"></path><path d="M0 300L21.5 303.5C43 307 86 314 128.8 315.5C171.7 317 214.3 313 257.2 303.8C300 294.7 343 280.3 385.8 279C428.7 277.7 471.3 289.3 514.2 291.5C557 293.7 600 286.3 642.8 292.2C685.7 298 728.3 317 771.2 316.3C814 315.7 857 295.3 878.5 285.2L900 275L900 451L878.5 451C857 451 814 451 771.2 451C728.3 451 685.7 451 642.8 451C600 451 557 451 514.2 451C471.3 451 428.7 451 385.8 451C343 451 300 451 257.2 451C214.3 451 171.7 451 128.8 451C86 451 43 451 21.5 451L0 451Z" fill="#4e9f3f"></path><path d="M0 365L21.5 358.5C43 352 86 339 128.8 335.3C171.7 331.7 214.3 337.3 257.2 342C300 346.7 343 350.3 385.8 354.7C428.7 359 471.3 364 514.2 361.2C557 358.3 600 347.7 642.8 336.7C685.7 325.7 728.3 314.3 771.2 310.8C814 307.3 857 311.7 878.5 313.8L900 316L900 451L878.5 451C857 451 814 451 771.2 451C728.3 451 685.7 451 642.8 451C600 451 557 451 514.2 451C471.3 451 428.7 451 385.8 451C343 451 300 451 257.2 451C214.3 451 171.7 451 128.8 451C86 451 43 451 21.5 451L0 451Z" fill="#7ebc6f"></path><path d="M0 374L21.5 376.7C43 379.3 86 384.7 128.8 384C171.7 383.3 214.3 376.7 257.2 369C300 361.3 343 352.7 385.8 356.2C428.7 359.7 471.3 375.3 514.2 376C557 376.7 600 362.3 642.8 357C685.7 351.7 728.3 355.3 771.2 360C814 364.7 857 370.3 878.5 373.2L900 376L900 451L878.5 451C857 451 814 451 771.2 451C728.3 451 685.7 451 642.8 451C600 451 557 451 514.2 451C471.3 451 428.7 451 385.8 451C343 451 300 451 257.2 451C214.3 451 171.7 451 128.8 451C86 451 43 451 21.5 451L0 451Z" fill="#acd99f"></path><path d="M0 395L21.5 397.2C43 399.3 86 403.7 128.8 404.8C171.7 406 214.3 404 257.2 400.3C300 396.7 343 391.3 385.8 394.3C428.7 397.3 471.3 408.7 514.2 415C557 421.3 600 422.7 642.8 421C685.7 419.3 728.3 414.7 771.2 412C814 409.3 857 408.7 878.5 408.3L900 408L900 451L878.5 451C857 451 814 451 771.2 451C728.3 451 685.7 451 642.8 451C600 451 557 451 514.2 451C471.3 451 428.7 451 385.8 451C343 451 300 451 257.2 451C214.3 451 171.7 451 128.8 451C86 451 43 451 21.5 451L0 451Z" fill="#d9f7d0"></path></svg>