<!DOCTYPE svg PUBLIC "-//W3C//DTD SVG 1.1//EN" "http://www.w3.org/Graphics/SVG/1.1/DTD/svg11.dtd">
<!-- Uploaded to: SVG Repo, www.svgrepo.com, Transformed by: SVG Repo Mixer Tools -->
<svg fill="#246740" width="800px" height="800px" viewBox="0 0 256 256" id="Flat" xmlns="http://www.w3.org/2000/svg">
<g id="SVGRepo_bgCarrier" stroke-width="0"/>
<g id="SVGRepo_tracerCarrier" stroke-linecap="round" stroke-linejoin="round"/>
<g id="SVGRepo_iconCarrier"> <path d="M208,32H48A16.01081,16.01081,0,0,0,32,48V208a16.01081,16.01081,0,0,0,16,16H156.6875A15.92313,15.92313,0,0,0,168,219.3125L219.3125,168A15.92313,15.92313,0,0,0,224,156.6875V48A16.01081,16.01081,0,0,0,208,32ZM96,88h64a8,8,0,0,1,0,16H96a8,8,0,0,1,0-16Zm32,80H96a8,8,0,0,1,0-16h32a8,8,0,0,1,0,16ZM96,136a8,8,0,0,1,0-16h64a8,8,0,0,1,0,16Zm64,68.6875V159.98438h44.70312Z"/> </g>
</svg>