<?xml version="1.0" encoding="utf-8"?><!-- Uploaded to: SVG Repo, www.svgrepo.com, Generator: SVG Repo Mixer Tools -->
<svg version="1.1" id="Uploaded to svgrepo.com" xmlns="http://www.w3.org/2000/svg" xmlns:xlink="http://www.w3.org/1999/xlink" 
	 width="800px" height="800px" viewBox="0 0 32 32" xml:space="preserve">
<style type="text/css">
	.puchipuchi_een{fill:#111918;}
</style>
<path class="puchipuchi_een" d="M25,8H7c-1.1,0-2,0.9-2,2v18c0,1.1,0.9,2,2,2h18c1.1,0,2-0.9,2-2V10C27,8.9,26.1,8,25,8z M25,20h-8
	v8c0,0.552-0.447,1-1,1s-1-0.448-1-1v-8H7c-0.553,0-1-0.448-1-1s0.447-1,1-1h8v-8c0-0.552,0.447-1,1-1c0.553,0,1,0.448,1,1v8h8
	c0.553,0,1,0.448,1,1S25.553,20,25,20z M11,6c0-0.552,0.448-1,1-1h1.586l-1.293-1.293c-0.391-0.391-0.391-1.023,0-1.414
	s1.023-0.391,1.414,0L15,3.586V2c0-0.552,0.448-1,1-1s1,0.448,1,1v1.586l1.293-1.293c0.391-0.391,1.023-0.391,1.414,0
	s0.391,1.023,0,1.414L18.414,5H20c0.552,0,1,0.448,1,1s-0.448,1-1,1h-8C11.448,7,11,6.552,11,6z"/>
</svg>