<!DOCTYPE svg PUBLIC "-//W3C//DTD SVG 1.1//EN" "http://www.w3.org/Graphics/SVG/1.1/DTD/svg11.dtd">
<!-- Uploaded to: SVG Repo, www.svgrepo.com, Transformed by: SVG Repo Mixer Tools -->
<svg version="1.1" id="Uploaded to svgrepo.com" xmlns="http://www.w3.org/2000/svg" xmlns:xlink="http://www.w3.org/1999/xlink" width="800px" height="800px" viewBox="0 0 32 32" xml:space="preserve" fill="#000000">
<g id="SVGRepo_bgCarrier" stroke-width="0"/>
<g id="SVGRepo_tracerCarrier" stroke-linecap="round" stroke-linejoin="round"/>
<g id="SVGRepo_iconCarrier"> <style type="text/css"> .stone_een{fill:#85bf78;} </style> <path class="stone_een" d="M14,18H4v-7c0-1.105,0.895-2,2-2h8V18z M11.667,8h8.667l0.594-0.891C21.813,5.78,20.86,4,19.263,4h-0.596 l-0.203-0.913c-0.223-1.005-0.986-1.856-1.999-2.043c-1.355-0.251-2.612,0.617-2.898,1.907L13.333,4h-0.596 c-1.597,0-2.55,1.78-1.664,3.109L11.667,8z M26,9h-8v9h10v-7C28,9.895,27.105,9,26,9z M18,31h8c1.105,0,2-0.895,2-2v-7H18V31z M4,29 c0,1.105,0.895,2,2,2h8v-9H4V29z M17,9h-2v10H4v2h11v10h2V21h11v-2H17V9z"/> </g>
</svg>